# xmcd
#
# Track frame offsets:
# 150
# 1261
# 16230
# 34432
# 39268
# 59321
# 67130
# 86372
# 89917
# 116296
# 123421
# 135722
# 144442
# 158699
# 163410
# 176736
# 193849
#
# Disc length: 2748 seconds
#
#
# Revision: 0
# Processed by: cddbd v1.5PL3 Copyright (c) Steve Scherf et al.
# Submitted via: FreeRIP 2.53 
#
DISCID=eb0aba11
DTITLE=Ill Again - Ill Again
DYEAR=2004
DGENRE=Hip-Hop
TTITLE0=Introduction
TTITLE1=Next!
TTITLE2=Daniel's Groove
TTITLE3=Blue (Interlude)
TTITLE4=Another Galaxy
TTITLE5=Six and Four (Interlude)
TTITLE6=Here's a Toast
TTITLE7=Lynwood (Interlude)
TTITLE8=Figueroa
TTITLE9=4 Stars Cypher (Interlude)
TTITLE10=Herbie
TTITLE11=A Week's Passed (Interlude)
TTITLE12=Tell a Friend
TTITLE13=Lenny Bruce (Interlude)
TTITLE14=Mildred
TTITLE15=B'Ding
TTITLE16=Blackbird
EXTD=
EXTT0=
EXTT1=
EXTT2=
EXTT3=
EXTT4=
EXTT5=
EXTT6=
EXTT7=
EXTT8=
EXTT9=
EXTT10=
EXTT11=
EXTT12=
EXTT13=
EXTT14=
EXTT15=
EXTT16=
PLAYORDER=
